<?xml version="1.0" standalone="no"?>
<!DOCTYPE svg PUBLIC "-//W3C//DTD SVG 20010904//EN"
 "http://www.w3.org/TR/2001/REC-SVG-20010904/DTD/svg10.dtd">
<svg version="1.0" xmlns="http://www.w3.org/2000/svg"
 width="612.000000pt" height="612.000000pt" viewBox="0 0 612.000000 612.000000"
 preserveAspectRatio="xMidYMid meet">

<g transform="translate(0.000000,612.000000) scale(0.100000,-0.100000)"
fill="#000000" stroke="none">
<path d="M0 3060 l0 -3060 3060 0 3060 0 0 3060 0 3060 -3060 0 -3060 0 0
-3060z m1955 1308 c114 -249 289 -628 387 -843 99 -214 207 -452 241 -527 l62
-138 47 98 c26 53 83 175 127 270 l80 173 -83 182 c-46 100 -191 416 -321 702
-130 286 -239 523 -242 528 -2 4 68 6 157 5 l161 -3 145 -315 c80 -173 188
-411 242 -527 53 -117 99 -213 102 -213 3 0 75 150 160 333 253 547 331 712
339 720 4 4 260 6 568 5 l561 -3 -63 -135 c-35 -74 -154 -331 -265 -570 -357
-769 -741 -1591 -801 -1719 -33 -68 -59 -125 -59 -127 0 -1 -34 -73 -75 -159
-41 -87 -75 -158 -75 -160 0 -3 -85 -183 -182 -385 -38 -80 -79 -166 -90 -192
-11 -27 -23 -48 -27 -48 -4 0 -22 33 -41 72 -18 40 -51 110 -72 154 l-38 81
121 264 c67 145 150 326 185 402 35 75 94 201 130 280 37 78 92 198 124 267
70 151 483 1041 622 1340 56 118 116 248 134 288 l33 72 -252 0 -252 0 -290
-623 c-159 -342 -367 -788 -462 -992 -95 -203 -213 -454 -261 -557 -48 -102
-90 -183 -94 -180 -4 4 -111 234 -238 512 -127 278 -278 606 -335 730 -56 124
-161 353 -233 510 -71 157 -189 414 -261 572 -72 158 -131 292 -131 298 0 6
55 10 154 10 l153 0 208 -452z"/>
</g>
</svg>
